# xmcd
#
# Track frame offsets: 
#        150
#        15182
#        35790
#        50472
#        68910
#        90277
#        108741
#        121726
#        143079
#        164629
#        180881
#        196487
#
# Disc length: 2844 seconds
#
# Revision: 0
# Processed by: cddbd v1.5.2PL0 Copyright (c) Steve Scherf et al.
# Submitted via: ExactAudioCopy v0.99pb4
#
DISCID=990b1a0c
DTITLE=呂紀民的台語歌專輯-舊情綿綿 - 黃金交響篇
DYEAR=1900
DGENRE=Folk
TTITLE0=春宵吟
TTITLE1=落雨天
TTITLE2=今夜又是落雨暝\
TTITLE3=風中煙
TTITLE4=台北上午零時
TTITLE5=苦戀歌
TTITLE6=春風歌聲
TTITLE7=想思海
TTITLE8=管芒花
TTITLE9=月夜愁
TTITLE10=淡水暮色
TTITLE11=勸世歌
EXTD=
EXTT0=
EXTT1=
EXTT2=
EXTT3=
EXTT4=
EXTT5=
EXTT6=
EXTT7=
EXTT8=
EXTT9=
EXTT10=
EXTT11=
PLAYORDER=
